<?xml version="1.0" encoding="UTF-8"?>
<svg version="1.1" xmlns="http://www.w3.org/2000/svg" width="128" height="128">
<path d="M0 0 C0 0.66 0 1.32 0 2 C2.97 2 5.94 2 9 2 C9 1.34 9 0.68 9 0 C11.85847242 -0.81393517 14.40238432 -1.12830714 17.37109375 -1.1328125 C18.19287109 -1.13410156 19.01464844 -1.13539062 19.86132812 -1.13671875 C20.71146484 -1.13285156 21.56160156 -1.12898438 22.4375 -1.125 C23.28376953 -1.12886719 24.13003906 -1.13273437 25.00195312 -1.13671875 C29.12945952 -1.13025437 32.97540106 -1.041272 37 0 C37 0.66 37 1.32 37 2 C40.63 2 44.26 2 48 2 C48 1.34 48 0.68 48 0 C50.90600261 -1.25664978 52.79604584 -2 56 -2 C56 -2.66 56 -3.32 56 -4 C57.43640171 -4.19573608 58.87419504 -4.38127816 60.3125 -4.5625 C61.11300781 -4.66691406 61.91351563 -4.77132813 62.73828125 -4.87890625 C65 -5 65 -5 68 -4 C68 -3.34 68 -2.68 68 -2 C68.99 -1.67 69.98 -1.34 71 -1 C71 1.64 71 4.28 71 7 C70.34 7 69.68 7 69 7 C68.9071875 8.5778125 68.9071875 8.5778125 68.8125 10.1875 C68.19017148 15.52995099 66.04791897 20.22686496 63.9609375 25.14453125 C62.67310929 28.02315046 62.67310929 28.02315046 64 31 C64.14798692 35.58759445 63.98561021 39.50999792 63 44 C64.19496094 43.96519531 64.19496094 43.96519531 65.4140625 43.9296875 C75.93848858 43.75043937 75.93848858 43.75043937 81 46 C81 47.65 81 49.3 81 51 C73.92278069 51.12109311 67.02804699 50.85373239 60 50 C60.34520448 51.96493574 60.34520448 51.96493574 61 54 C62.9837767 55.28436734 62.9837767 55.28436734 65 56 C65 56.66 65 57.32 65 58 C66.98 58.66 68.96 59.32 71 60 C71 61.98 71 63.96 71 66 C68.6875 66.1875 68.6875 66.1875 66 66 C64.375 64.5625 64.375 64.5625 63 63 C61.515 62.505 61.515 62.505 60 62 C59.9175 62.53625 59.835 63.0725 59.75 63.625 C58.44725594 67.75035619 56.29038885 70.96768892 52.91015625 73.671875 C48.92209397 75.49193027 45.51043605 75.32881979 41.1875 75.1875 C40.39923828 75.17396484 39.61097656 75.16042969 38.79882812 75.14648438 C36.86558831 75.11133456 34.93270318 75.05753361 33 75 C32.67 74.01 32.34 73.02 32 72 C29.36 72 26.72 72 24 72 C23.505 73.485 23.505 73.485 23 75 C17.39 75 11.78 75 6 75 C5.67 74.01 5.34 73.02 5 72 C4.401875 71.896875 3.80375 71.79375 3.1875 71.6875 C-0.29736306 70.59225732 -1.27619476 68.07822364 -3 65 C-3 64.01 -3 63.02 -3 62 C-3.66 62 -4.32 62 -5 62 C-5 61.34 -5 60.68 -5 60 C-6.83700789 59.22757731 -6.83700789 59.22757731 -9 59 C-10.52109931 60.26973898 -10.52109931 60.26973898 -12 62 C-15.19222005 64.10014477 -18.35789929 65.81877815 -22 67 C-22.66 66.67 -23.32 66.34 -24 66 C-23.67 64.02 -23.34 62.04 -23 60 C-21.5459375 59.5978125 -21.5459375 59.5978125 -20.0625 59.1875 C-18.5465625 58.5996875 -18.5465625 58.5996875 -17 58 C-16.67 57.01 -16.34 56.02 -16 55 C-15.01 55 -14.02 55 -13 55 C-13 53.68 -13 52.36 -13 51 C-19.93 51 -26.86 51 -34 51 C-34.33 49.35 -34.66 47.7 -35 46 C-28.92972642 43.8416805 -23.40629424 43.79147686 -17 44 C-17.01160156 43.13117188 -17.02320312 42.26234375 -17.03515625 41.3671875 C-17.04417969 40.21476562 -17.05320312 39.06234375 -17.0625 37.875 C-17.07410156 36.73804688 -17.08570312 35.60109375 -17.09765625 34.4296875 C-17.00527324 31.18519606 -16.53819719 28.19330331 -16 25 C-16.37617294 21.73589643 -16.37617294 21.73589643 -17 19 C-17.66 19 -18.32 19 -19 19 C-20.19287411 15.12315913 -21 12.08378077 -21 8 C-21.66 8 -22.32 8 -23 8 C-23 4.7 -23 1.4 -23 -2 C-22.34 -2 -21.68 -2 -21 -2 C-21 -2.66 -21 -3.32 -21 -4 C-13.68954779 -6.74141958 -6.48873481 -3.22934719 0 0 Z " fill="#020202" transform="translate(42,31)"/>
<path d="M0 0 C2.9375 2 2.9375 2 5 4 C5.33 3.34 5.66 2.68 6 2 C8.60018816 5.90028225 8.15085514 9.47434569 8 14 C7.1646875 14.12375 7.1646875 14.12375 6.3125 14.25 C3.81113482 14.88963014 3.81113482 14.88963014 1.6875 17.0625 C-1.77781868 19.560753 -3.80936994 19.38096637 -8 19 C-9.1446875 18.9071875 -9.1446875 18.9071875 -10.3125 18.8125 C-12 18 -12 18 -13.25 15.875 C-14.20197151 12.22577586 -14.5935585 9.75920386 -14 6 C-10.30096675 1.00958827 -6.2596602 -1.15919633 0 0 Z " fill="#E5E5E5" transform="translate(98,56)"/>
<path d="M0 0 C0.66 0.33 1.32 0.66 2 1 C2.73226358 8.61554118 0.19164467 14.16076141 -3 21 C-3.66 21 -4.32 21 -5 21 C-6.52448631 18.0173094 -7.93940067 15.181798 -9 12 C-9.99 11.67 -10.98 11.34 -12 11 C-13.6875 9.625 -13.6875 9.625 -15 8 C-15 7.01 -15 6.02 -15 5 C-5.63822285 -0.82510578 -5.63822285 -0.82510578 0 0 Z " fill="#D9A8DA" transform="translate(105,33)"/>
<path d="M0 0 C2 1.8125 2 1.8125 3 4 C3 4.99 3 5.98 3 7 C-1.455 7.495 -1.455 7.495 -6 8 C-6 10.31 -6 12.62 -6 15 C-4.68 15.33 -3.36 15.66 -2 16 C-2 16.66 -2 17.32 -2 18 C-10.09149055 17.66073415 -10.09149055 17.66073415 -13.0625 15.5 C-14.46844969 11.75080082 -14.74094103 7.94442134 -14 4 C-10.52254139 -0.46375534 -5.2942493 -0.81619677 0 0 Z " fill="#D8D8D8" transform="translate(71,56)"/>
<path d="M0 0 C5.841744 -0.35050464 9.8531808 -0.16727335 15 3 C15 3.99 15 4.98 15 6 C13.52428613 7.21336474 12.04493659 8.42304562 10.53515625 9.59375 C8.24700482 11.68976657 7.18325797 14.17332817 6 17 C5.34 17 4.68 17 4 17 C1.36536213 11.15439723 -0.56131481 6.45512034 0 0 Z " fill="#EBB5EB" transform="translate(25,35)"/>
<path d="M0 0 C3.875 1.875 3.875 1.875 5 3 C5.63875068 6.84058951 5.86586712 10.47236301 3.90625 13.9296875 C1.12614241 17.02033902 -0.49479329 17.92293457 -4.6875 18.5625 C-8 18 -8 18 -9.9375 16.5 C-10.288125 16.005 -10.63875 15.51 -11 15 C-8.36 15.33 -5.72 15.66 -3 16 C-3 15.34 -3 14.68 -3 14 C-4.32 13.67 -5.64 13.34 -7 13 C-7 10.69 -7 8.38 -7 6 C-4.04335481 4.5216774 -1.25770263 4.93967217 2 5 C1.34 3.35 0.68 1.7 0 0 Z " fill="#7E7E7E" transform="translate(72,58)"/>
<path d="M0 0 C1 1 1 1 1.125 4 C1 7 1 7 0 8 C-2.33297433 8.04092937 -4.66705225 8.04241723 -7 8 C-7 5.69 -7 3.38 -7 1 C-4.51588385 -0.24205807 -2.74800896 -0.14092354 0 0 Z " fill="#3B3B3B" transform="translate(72,63)"/>
<path d="M0 0 C2.5625 0.1875 2.5625 0.1875 4.5625 2.1875 C4.6875 5.3125 4.6875 5.3125 4.5625 8.1875 C2.22955225 8.22991723 -0.10452567 8.22842937 -2.4375 8.1875 C-3.4375 7.1875 -3.4375 7.1875 -3.5625 4.1875 C-3.39891479 0.26145498 -3.39891479 0.26145498 0 0 Z " fill="#393939" transform="translate(90.4375,62.8125)"/>
<path d="M0 0 C0.66 0.33 1.32 0.66 2 1 C3.28317892 4.84953676 3.06643637 7.94738135 3 12 C1.35 12.33 -0.3 12.66 -2 13 C-1.67 10.36 -1.34 7.72 -1 5 C-1.66 5 -2.32 5 -3 5 C-2.67 3.68 -2.34 2.36 -2 1 C-1.34 1.33 -0.68 1.66 0 2 C0 1.34 0 0.68 0 0 Z " fill="#A9A9A9" transform="translate(103,58)"/>
<path d="M0 0 C2.89932357 2.39509338 3.50168276 4.31245243 4 8 C5.65 8.33 7.3 8.66 9 9 C8.67 9.66 8.34 10.32 8 11 C9.65 11.33 11.3 11.66 13 12 C13 12.33 13 12.66 13 13 C4.41963016 13.16500711 4.41963016 13.16500711 2 12 C-0.30238787 8.08594062 -0.17461992 4.45280788 0 0 Z " fill="#888888" transform="translate(84,62)"/>
<path d="M0 0 C0.99 0.33 1.98 0.66 3 1 C2.44449305 4.59905908 1.25112752 5.99909799 -1.5625 8.25 C-2.20316406 8.77078125 -2.84382813 9.2915625 -3.50390625 9.828125 C-3.99761719 10.21484375 -4.49132813 10.6015625 -5 11 C-5 8 -5 8 -3.125 5.8125 C-1 4 -1 4 1 4 C0.67 2.68 0.34 1.36 0 0 Z " fill="#3A2D3A" transform="translate(39,37)"/>
<path d="M0 0 C1.65 0 3.3 0 5 0 C5.33 1.32 5.66 2.64 6 4 C4.02 4 2.04 4 0 4 C0 2.68 0 1.36 0 0 Z " fill="#030303" transform="translate(88,65)"/>
<path d="M0 0 C2.475 0.495 2.475 0.495 5 1 C4.67 2.32 4.34 3.64 4 5 C2.68 4.67 1.36 4.34 0 4 C0 2.68 0 1.36 0 0 Z " fill="#360900" transform="translate(78,73)"/>
<path d="M0 0 C1.98 0 3.96 0 6 0 C5.67 0.66 5.34 1.32 5 2 C6.65 2.33 8.3 2.66 10 3 C10 3.33 10 3.66 10 4 C3.375 4.25 3.375 4.25 0 2 C0 1.34 0 0.68 0 0 Z " fill="#B1B1B1" transform="translate(87,71)"/>
<path d="M0 0 C1.65 0 3.3 0 5 0 C5 1.32 5 2.64 5 4 C3.35 4 1.7 4 0 4 C0 2.68 0 1.36 0 0 Z " fill="#010101" transform="translate(67,65)"/>
<path d="M0 0 C0.33 0.66 0.66 1.32 1 2 C3.52733235 2.65555119 3.52733235 2.65555119 6 3 C6 3.33 6 3.66 6 4 C4.576875 4.4640625 4.576875 4.4640625 3.125 4.9375 C0.13919592 5.87394742 0.13919592 5.87394742 -2 7 C-2.125 4.625 -2.125 4.625 -2 2 C-1.34 1.34 -0.68 0.68 0 0 Z " fill="#BEBEBE" transform="translate(87,59)"/>
<path d="M0 0 C0.66 0.33 1.32 0.66 2 1 C2 3.31 2 5.62 2 8 C1.34 8 0.68 8 0 8 C-0.66 6.02 -1.32 4.04 -2 2 C-1.34 2 -0.68 2 0 2 C0 1.34 0 0.68 0 0 Z " fill="#A6A6A6" transform="translate(74,61)"/>
</svg>
